PathFileType	4	(X/Y/Z)	C:\Users\dbl\Desktop\LZH\BX\Trimmed_Trimmed_bx_y_5_501.trc
DataRate	CameraRate	NumFrames	NumMarkers	Units	OrigDataRate	OrigDataStartFrame	OrigNumFrames
50.00	50.00	       7	43	mm	50.00	329	       438
Frame#	Time	Top.Head			R.Acromium			L.Acromium			Sternum			R.ASIS			L.ASIS			V.Sacral			R.Thigh.Upper			R.Thigh.Front			R.Thigh.Rear			R.Knee.Lat			R.Knee.Med			R.Shank.Upper			R.Shank.Front			R.Shank.Rear			R.Ankle.Lat			R.Midfoot.Lat			R.Toe.Lat			R.Toe.Tip			R.Toe.Med			R.Ankle.Med			R.Midfoot.Sup			R.Heel			L.Thigh.Upper			L.Thigh.Front			L.Thigh.Rear			L.Knee.Lat			L.Knee.Med			L.Shank.Upper			L.Shank.Front			L.Shank.Rear			L.Ankle.Lat			L.Midfoot.Lat			L.Toe.Lat			L.Toe.Tip			L.Toe.Med			L.Ankle.Med			L.Midfoot.Sup			L.Heel			origin1 front left			origin2 front right			origin 3 back right			origin 4 back leftt			
		X1	Y1	Z1	X2	Y2	Z2	X3	Y3	Z3	X4	Y4	Z4	X5	Y5	Z5	X6	Y6	Z6	X7	Y7	Z7	X8	Y8	Z8	X9	Y9	Z9	X10	Y10	Z10	X11	Y11	Z11	X12	Y12	Z12	X13	Y13	Z13	X14	Y14	Z14	X15	Y15	Z15	X16	Y16	Z16	X17	Y17	Z17	X18	Y18	Z18	X19	Y19	Z19	X20	Y20	Z20	X21	Y21	Z21	X22	Y22	Z22	X23	Y23	Z23	X24	Y24	Z24	X25	Y25	Z25	X26	Y26	Z26	X27	Y27	Z27	X28	Y28	Z28	X29	Y29	Z29	X30	Y30	Z30	X31	Y31	Z31	X32	Y32	Z32	X33	Y33	Z33	X34	Y34	Z34	X35	Y35	Z35	X36	Y36	Z36	X37	Y37	Z37	X38	Y38	Z38	X39	Y39	Z39	X40	Y40	Z40	X41	Y41	Z41	X42	Y42	Z42	X43	Y43	Z43	

329	6.560	-210.25143	262.35141	1560.16724	-388.37433	65.67050	1371.47314	-398.44452	443.93436	1331.63330	-391.47504	76.71527	1331.85205	-699.94501	150.15784	1029.23352	-689.37598	396.82214	1045.39709	-909.74823	260.21158	1037.29077	-732.25171	98.61113	881.17224	-679.36200	154.90617	835.60651	-764.73700	87.75213	734.48523	-752.55908	123.22623	590.81879	-727.80310	230.25734	550.76843	-770.91107	121.84547	526.15399	-689.78033	170.98380	545.61554	-792.86584	124.73449	451.72879	-694.04486	141.25797	210.57179	-614.81989	79.89513	164.78456	-569.48615	54.29504	163.03230	-492.58209	98.36266	163.14348	-531.37561	147.79126	165.79671	-642.26605	215.16949	225.31569	-592.91711	187.94518	175.41379	-717.50378	211.79269	169.49287	-724.58447	442.44446	872.34668	-676.85486	380.35370	832.15765	-758.22546	453.95068	738.34259	-759.93829	420.86862	612.19379	-714.94073	314.37683	570.25464	-752.25751	417.36407	550.77936	-695.47681	375.08270	541.23059	-792.05225	425.96313	489.97931	-684.89319	420.71402	210.02953	-582.54596	469.14700	164.34244	-542.72375	477.35184	159.55486	-481.16101	427.71545	166.11787	-525.02673	387.69928	176.70030	-649.86798	331.78189	210.76807	-596.05060	349.93875	172.00696	-731.89215	347.68765	165.97346	-443.69104	449.07959	146.89717	-450.59470	75.24297	144.59947	-806.37396	82.74275	142.46423	-799.28680	458.26068	145.56024	
330	6.580	-205.64420	262.38760	1547.04175	-383.35028	65.35283	1366.43164	-394.83463	443.78418	1320.61609	-387.42746	77.86105	1322.93872	-704.03290	149.95801	1028.00195	-693.43097	396.74387	1043.72644	-913.69031	260.26810	1037.50195	-736.77148	98.30264	880.21954	-683.43512	154.65204	834.68677	-768.47095	87.46581	733.46924	-755.19830	122.99248	590.11420	-729.84583	230.07990	550.18933	-773.14850	121.56572	525.44403	-692.19012	170.91872	545.11163	-794.71301	124.37466	450.99683	-694.34875	141.14711	210.33270	-614.89557	79.77261	164.66402	-569.50720	54.18845	163.00998	-492.69128	98.39581	163.13869	-531.51526	147.73286	165.88559	-642.73492	214.94539	225.34801	-593.09259	187.89410	175.59375	-717.60876	211.60812	169.34949	-728.75958	442.60373	871.53705	-680.87622	380.60904	831.49976	-761.85168	454.30954	737.48651	-762.64545	421.13531	611.42694	-717.29938	314.33096	570.05664	-754.58954	417.56317	550.15643	-697.76520	375.28558	540.93115	-794.01770	426.04413	489.09296	-685.14319	420.92682	209.81306	-582.57996	469.20035	164.33296	-542.74762	477.36475	159.54622	-481.37830	427.63416	166.21373	-525.24384	387.89624	176.79210	-650.03082	331.90170	210.85643	-596.13806	350.12656	172.09749	-731.91278	347.72995	165.89920	-443.68790	449.08929	146.89616	-450.58658	75.27011	144.58830	-806.35706	82.70210	142.48120	-799.33997	458.23083	145.64301	
331	6.600	-201.47949	262.50726	1534.12769	-378.51636	65.02855	1361.60767	-391.44760	443.63446	1309.74414	-383.67358	79.28186	1314.15649	-707.95245	149.80327	1026.74023	-697.35327	396.52649	1041.93555	-917.45209	260.32690	1037.68469	-741.13940	98.03107	879.22241	-687.41309	154.44090	833.79901	-772.13287	87.22228	732.43353	-757.75873	122.78551	589.42963	-731.84430	229.87662	549.56409	-775.32819	121.30784	524.75134	-694.53455	170.92209	544.57983	-796.44635	124.00487	450.28000	-694.59595	141.03003	210.08954	-614.96130	79.63096	164.58270	-569.52820	54.09499	162.99448	-492.80383	98.44157	163.12978	-531.64099	147.69200	165.98503	-643.22601	214.75443	225.31947	-593.26807	187.84837	175.75888	-717.73364	211.43098	169.22360	-732.87842	442.76819	870.69373	-684.82343	380.91931	830.84662	-765.44025	454.58960	736.57269	-765.36426	421.38727	610.64349	-719.61975	314.32516	569.88641	-756.89050	417.80338	549.54846	-700.02954	375.49905	540.64435	-795.89209	426.10245	488.16733	-685.41052	421.14294	209.61319	-582.62561	469.26593	164.31064	-542.81329	477.37332	159.50175	-481.58423	427.54535	166.28459	-525.47272	388.09747	176.86670	-650.17651	332.01294	210.94949	-596.23169	350.34927	172.15829	-731.95801	347.83926	165.72331	-443.68677	449.10254	146.89117	-450.57513	75.28608	144.58279	-806.34540	82.67165	142.49670	-799.41333	458.21692	145.69536	
332	6.620	-197.72275	262.68927	1521.49146	-373.87161	64.69814	1356.99878	-388.24548	443.46344	1299.06079	-380.20917	80.88454	1305.56714	-711.68677	149.70569	1025.42834	-701.11603	396.15356	1040.01843	-921.01666	260.38223	1037.84521	-745.30347	97.83595	878.19507	-691.25208	154.28172	832.96930	-775.68060	87.04571	731.38654	-760.18921	122.62906	588.77319	-733.82214	229.66379	548.88605	-777.41748	121.08784	524.07727	-696.77057	170.99553	544.04510	-798.03735	123.65877	449.57693	-694.78949	140.89078	209.85771	-615.01251	79.46419	164.56512	-569.54657	54.02142	162.98264	-492.90610	98.50816	163.11644	-531.73944	147.66347	166.08130	-643.69379	214.59680	225.26567	-593.43127	187.79962	175.90738	-717.86584	211.27036	169.12724	-736.90381	442.93002	869.83667	-688.65405	381.26099	830.20728	-768.95935	454.77252	735.61609	-768.07452	421.59131	609.83881	-721.88281	314.36014	569.70471	-759.14862	418.06055	548.95526	-702.24054	375.71631	540.36969	-797.68024	426.14465	487.22479	-685.69434	421.34317	209.45961	-582.68182	469.33875	164.27568	-542.89380	477.38611	159.45007	-481.75815	427.45746	166.32361	-525.69000	388.27884	176.91519	-650.31073	332.12326	211.04158	-596.31891	350.58096	172.19888	-732.03076	348.01218	165.46231	-443.68735	449.11530	146.88147	-450.56387	75.28978	144.58536	-806.32324	82.64484	142.52193	-799.49719	458.22388	145.70695	
333	6.640	-194.34320	262.90607	1509.19275	-369.41486	64.36208	1352.60278	-385.20850	443.25101	1288.57324	-377.02869	82.59834	1297.22168	-715.22717	149.67595	1024.05164	-704.69250	395.63144	1037.98169	-924.37872	260.43591	1037.98877	-749.23291	97.74713	877.15747	-694.91132	154.16728	832.21387	-779.07849	86.95010	730.33807	-762.45514	122.53346	588.14612	-735.76727	229.47252	548.17584	-779.38831	120.91850	523.42383	-698.86896	171.12138	543.53241	-799.48163	123.36227	448.88831	-694.94678	140.72307	209.64757	-615.04810	79.27270	164.62190	-569.56000	53.97007	162.97093	-492.98462	98.59853	163.09729	-531.80469	147.64145	166.16360	-644.09363	214.46275	225.24153	-593.57159	187.74417	176.04169	-717.99103	211.13255	169.06442	-740.79248	443.09805	868.98706	-692.31891	381.61313	829.59119	-772.36407	454.88193	734.64667	-770.73022	421.73560	609.01959	-724.06769	314.43079	569.47900	-761.34570	418.31567	548.37396	-704.37000	375.93420	540.09674	-799.39246	426.18607	486.29495	-685.99286	421.51074	209.36565	-582.74457	469.41370	164.22972	-542.96826	477.40619	159.40889	-481.88705	427.37903	166.33543	-525.87616	388.42197	176.93741	-650.44019	332.24594	211.13498	-596.37805	350.79086	172.24223	-732.12439	348.23132	165.15639	-443.68884	449.12366	146.86858	-450.55789	75.28794	144.59250	-806.27771	82.61295	142.56750	-799.57843	458.24774	145.68216	
334	6.660	-191.31061	263.13385	1497.27979	-365.14493	64.02075	1348.41711	-382.33832	442.98093	1278.26306	-374.12573	84.39214	1289.14307	-718.57654	149.72127	1022.60559	-708.05859	395.00003	1035.85083	-927.53711	260.49835	1038.11646	-752.92010	97.77357	876.13135	-698.36237	154.07967	831.53625	-782.30475	86.93556	729.29913	-764.54858	122.49518	587.54462	-737.64465	229.33783	547.46991	-781.22601	120.80927	522.79510	-700.81848	171.26797	543.06433	-800.79614	123.12988	448.21625	-695.08911	140.53307	209.46535	-615.07037	79.06737	164.74347	-569.56702	53.93804	162.95691	-493.03244	98.70738	163.07188	-531.83966	147.62242	166.22757	-644.39465	214.33577	225.30566	-593.68243	187.68579	176.16391	-718.09894	211.02083	169.03217	-744.50012	443.29465	868.16907	-695.76794	381.96777	829.00775	-775.60327	454.97858	733.70349	-773.26489	421.83676	608.20886	-726.15674	314.53137	569.19336	-763.45313	418.56116	547.80322	-706.39197	376.15277	539.81201	-801.03284	426.25052	485.40860	-686.29865	421.63828	209.32552	-582.80676	469.48535	164.17638	-543.02588	477.43259	159.38324	-481.96796	427.31601	166.33229	-526.01935	388.51895	176.94089	-650.57013	332.39410	211.23763	-596.38391	350.95050	172.32045	-732.22235	348.46915	164.86284	-443.69052	449.12521	146.85568	-450.56305	75.29203	144.59674	-806.20844	82.57263	142.63495	-799.64539	458.27686	145.63887	
335	6.680	-188.59128	263.35931	1485.78589	-361.06064	63.67461	1344.43958	-379.65076	442.64462	1268.10815	-371.49359	86.26260	1281.33215	-721.74841	149.84415	1021.09802	-711.19666	394.33423	1033.67310	-930.48810	260.58905	1038.22546	-756.37622	97.89912	875.13690	-701.59619	154.00020	830.92804	-785.35333	86.98862	728.28204	-766.48663	122.50211	586.96497	-739.41772	229.28342	546.80414	-782.93237	120.76474	522.19812	-702.62427	171.40364	542.65741	-802.00928	122.96519	447.56497	-695.23059	140.33771	209.31514	-615.08459	78.86812	164.90106	-569.56799	53.91850	162.94000	-493.05389	98.82247	163.04192	-531.85413	147.60548	166.27539	-644.58887	214.19748	225.49821	-593.76251	187.63364	176.27473	-718.18774	210.93546	169.02313	-747.98608	443.54562	867.40717	-698.95862	382.33295	828.46417	-778.62921	455.13605	732.82349	-775.61017	421.93359	607.43988	-728.14032	314.66162	568.84851	-765.43530	418.80157	547.24408	-708.28381	376.37439	539.50623	-802.59247	426.36475	484.58997	-686.59546	421.73022	209.31827	-582.86066	469.54868	164.12155	-543.06476	477.46246	159.36913	-482.00726	427.27002	166.32729	-526.11633	388.57312	176.93648	-650.70367	332.57474	211.35670	-596.31927	351.04022	172.46289	-732.30457	348.69394	164.64087	-443.69186	449.11990	146.84612	-450.58383	75.31219	144.59053	-806.13074	82.53006	142.71243	-799.69104	458.29813	145.60045	
